<svg width="167" height="84" viewBox="0 0 167 84" fill="none" xmlns="http://www.w3.org/2000/svg">
<path d="M37.1326 62.9744L26.7722 63.8808L25.0073 43.7079L24.8578 43.721L19.6494 64.504L8.89047 65.4453L5.80516 30.18L16.1656 29.2736L16.872 50.5429L17.1211 50.5211L21.6945 28.7899L31.1085 27.9662L32.2134 49.2007L32.3628 49.1877L36.6872 27.4782L46.8484 26.5892L37.1326 62.9744ZM160.949 46.3699C161.028 47.2665 160.951 48.1097 160.719 48.8996C160.487 49.6895 160.13 50.39 159.648 51.0009C159.163 51.5787 158.585 52.0476 157.914 52.4074C157.246 52.8005 156.496 53.0334 155.666 53.106C154.869 53.1757 154.16 53.1039 153.539 52.8905C152.918 52.6772 152.373 52.3735 151.904 51.9796C151.465 51.5496 151.121 51.061 150.872 50.514C150.62 49.9337 150.467 49.3281 150.412 48.6971C150.342 47.9002 150.407 47.1082 150.606 46.3212C150.838 45.5313 151.177 44.8157 151.622 44.1744C152.101 43.5302 152.675 43.0116 153.343 42.6185C154.009 42.1922 154.756 41.9428 155.587 41.8702C157.247 41.7249 158.518 42.0989 159.399 42.9922C160.313 43.8825 160.83 45.0084 160.949 46.3699Z" fill="#F69955"/>
<path d="M67.22 34.042L58.9018 34.7698L58.5032 38.8199L66.1739 38.1488L65.4746 46.7927L57.8039 47.4638L57.4316 51.8128L66.6962 51.0022L65.9172 60.4561L46.6906 62.1382L49.7319 26.3369L68.0121 24.7376L67.22 34.042ZM95.0438 30.8549C95.2384 33.0797 94.8503 34.954 93.8794 36.4778C92.9388 37.9654 91.6977 39.0778 90.1561 39.815L90.219 39.9601C91.4522 40.2872 92.5318 40.9623 93.4579 41.9855C94.3839 43.0087 94.921 44.367 95.0692 46.0605C95.258 48.219 95.0193 50.0802 94.3531 51.6442C93.7172 53.1721 92.827 54.4713 91.6826 55.5418C90.5353 56.5791 89.2168 57.3804 87.7271 57.9457C86.2344 58.4778 84.741 58.8092 83.2467 58.94L69.6984 60.1253L72.7397 24.324L84.7439 23.2737C85.7733 23.1837 86.8641 23.2221 88.0164 23.389C89.1686 23.5558 90.2387 23.9307 91.2266 24.5135C92.2448 25.0601 93.1007 25.8552 93.7942 26.8987C94.4849 27.9091 94.9014 29.2278 95.0438 30.8549ZM85.2068 46.9234C85.1313 46.06 84.8285 45.4675 84.2984 45.1458C83.7987 44.788 83.2334 44.6367 82.6024 44.6919L80.5602 44.8706L80.0976 50.4822L82.0899 50.3079C83.0529 50.2237 83.8281 49.9049 84.4154 49.3516C85.036 48.7954 85.2998 47.986 85.2068 46.9234ZM85.9386 34.0607C85.8834 33.4297 85.6391 32.9325 85.2057 32.5689C84.7695 32.172 84.2193 32.0027 83.5552 32.0608L81.6624 32.2264L81.206 37.3356L83.1486 37.1657C83.8459 37.1046 84.5092 36.8458 85.1385 36.3893C85.7648 35.8995 86.0315 35.1233 85.9386 34.0607ZM117.925 55.906L98.3001 57.623L101.341 21.8217L111.851 20.9022L109.662 46.942L118.778 46.1445L117.925 55.906ZM137.046 49.0132L130.721 49.5667L129.331 54.9081L118.472 55.8581L130.23 19.2942L143.131 18.1655L148.059 53.2696L137.5 54.1934L137.046 49.0132ZM132.518 41.429L136.503 41.0804L135.488 29.4747L135.288 29.4922L132.518 41.429Z" fill="white"/>
<path d="M40.1572 30.8867L44.1572 8.88672" stroke="#F69955" stroke-width="8"/>
<path d="M45.6572 26.8867L48.6572 10.8867" stroke="#F69955" stroke-width="2.4"/>
<path d="M38.6572 8.34126L46.1459 2.88672L50.6572 10.8867L38.6572 8.34126Z" fill="#F69955" stroke="#F69955" stroke-width="3.65"/>
</svg>
