<svg width="1400" height="40" viewBox="0 0 1400 40" fill="none" xmlns="http://www.w3.org/2000/svg">
<path d="M125.946 30.656C52.4201 44.8734 52.031 9.77443 0.485352 12.8844V39.5419H1400V12.8844C1373.9 15.1058 1312.57 21.7702 1276 30.656C1239.43 39.5419 1172.42 17.1989 1138.38 12.8844C1054.25 2.22148 862.368 28.4346 715.317 19.5488C531.503 8.44148 524.695 33.7662 388.051 24.8803C251.406 15.9945 217.853 12.8844 125.946 30.656Z" fill="#FFD0AD"/>
<path d="M139.076 14.6754C102.508 12.5428 31.1219 30.6699 0 40H1399.03C1361.58 31.1142 1272.79 5.43425 1211.32 14.6754C1134.49 26.2268 1104.34 14.6754 1029.46 3.12397C954.568 -8.42746 886.003 14.6754 815.006 29.7813C744.009 44.8873 670.58 22.2284 593.748 14.6754C516.916 7.1224 412.852 26.227 346.231 29.7813C279.611 33.3357 184.786 17.3411 139.076 14.6754Z" fill="#F69955"/>
</svg>
